<svg xmlns="http://www.w3.org/2000/svg" xmlns:xlink="http://www.w3.org/1999/xlink" xml:space="preserve" viewBox="0 0 24 24"><g><g fill="#879f84"><circle cx="21.5" cy="12.5" r="1.1"/><path d="M12 1a5 5 0 0 0-2 .5L4 5a4 4 0 0 0-2 3.4v7.1c0 1.4.7 2.6 2 3.3l6 3.6c1.3.7 2.8.8 4 0l6-3.4c1.3-.7 2-2 2-3.4V15l-.5.1a2.5 2.5 0 1 1 .5-4.9V8.5c0-1.4-.7-2.6-1.9-3.3l-6.2-3.6c-.6-.4-1.2-.6-1.9-.6zm1.4 6a3.5 3.5 0 0 1 2.5 6 .5.5 0 1 1-.7-.6 2.5 2.5 0 1 0-3.6-3.6.5.5 0 1 1-.7-.7c.7-.7 1.6-1 2.5-1zm0 3 .4.2c.2.2.2.5 0 .7l-2.9 2.9a.5.5 0 1 1-.7-.7l2.9-2.9.3-.1zm-5 .8a.5.5 0 0 1 .4.8 2.5 2.5 0 1 0 3.6 3.6.5.5 0 1 1 .7.7 3.5 3.5 0 0 1-5-5 .5.5 0 0 1 .4-.1z"/></g></g></svg>